<svg xmlns="http://www.w3.org/2000/svg" width="128" height="128" viewBox="0 0 128 128" role="img" aria-label="Logo cloud tech">
  <defs>
    <linearGradient id="warmCloud" x1="0" y1="0" x2="1" y2="1">
      <stop offset="0%" stop-color="#ffd9b3" />
      <stop offset="100%" stop-color="#c86c4d" />
    </linearGradient>
    <linearGradient id="sky" x1="0" y1="0" x2="1" y2="1">
      <stop offset="0%" stop-color="#fff8f1" />
      <stop offset="100%" stop-color="#f2d9c6" />
    </linearGradient>
  </defs>
  <rect x="6" y="6" width="116" height="116" rx="28" fill="url(#sky)" stroke="#e4d6c7" stroke-width="2" />
  <g fill="none" stroke="#d3b7a2" stroke-width="2">
    <path d="M64 22 98 42v44L64 106 30 86V42z" />
  </g>
  <g transform="translate(16 20)">
    <path d="M64 58H32a16 16 0 0 1 0-32 21 21 0 0 1 40-6 14 14 0 1 1 4 28H64z" fill="url(#warmCloud)" stroke="#d7b79d" stroke-width="2" />
  </g>
  <g stroke="#8d6f5a" stroke-width="2" stroke-linecap="round" opacity="0.85">
    <line x1="44" y1="86" x2="84" y2="86" />
    <line x1="50" y1="94" x2="78" y2="94" />
  </g>
  <g fill="#8d6f5a">
    <circle cx="48" cy="86" r="3" />
    <circle cx="64" cy="86" r="3" />
    <circle cx="80" cy="86" r="3" />
    <circle cx="56" cy="94" r="3" />
    <circle cx="72" cy="94" r="3" />
  </g>
</svg>
